<svg width="17" height="19" viewBox="0 0 17 19" fill="none" xmlns="http://www.w3.org/2000/svg">
<path d="M4.125 8.625H5.875V10.375H4.125V8.625ZM16.375 4.25V16.5C16.375 17.4625 15.5875 18.25 14.625 18.25H2.375C1.40375 18.25 0.625 17.4625 0.625 16.5L0.63375 4.25C0.63375 3.2875 1.40375 2.5 2.375 2.5H3.25V0.75H5V2.5H12V0.75H13.75V2.5H14.625C15.5875 2.5 16.375 3.2875 16.375 4.25ZM2.375 6H14.625V4.25H2.375V6ZM14.625 16.5V7.75H2.375V16.5H14.625ZM11.125 10.375H12.875V8.625H11.125V10.375ZM7.625 10.375H9.375V8.625H7.625V10.375Z" fill="#303030" fill-opacity="0.8"/>
</svg>
