<svg width="24" height="25" viewBox="0 0 24 25" fill="none" xmlns="http://www.w3.org/2000/svg">
<path d="M23.5 6H21.5V4C21.5 3.7 21.3 3.5 21 3.5H17.5C17.2 3.5 17 3.7 17 4V6H7V4C7 3.7 6.8 3.5 6.5 3.5H3C2.7 3.5 2.5 3.7 2.5 4V6H0.5C0.2 6 0 6.2 0 6.5V9C0 9.3 0.2 9.5 0.5 9.5H1V21C1 21.3 1.2 21.5 1.5 21.5H22.5C22.8 21.5 23 21.3 23 21V9.5H23.5C23.8 9.5 24 9.3 24 9V6.5C24 6.2 23.8 6 23.5 6ZM18 4.5H20.5V6H18V4.5ZM3.5 4.5H6V6H3.5V4.5ZM22 20.5H2V9.5H22V20.5ZM23 8.5H1V7H23V8.5Z" fill="#23B14D"/>
<path d="M10.15 18.9008C10.35 19.1008 10.7 19.0508 10.85 18.8508L13.85 15.3508C14.15 15.0008 13.95 14.5008 13.5 14.5008H11.6L13.9 11.8508C14.1 11.6508 14.05 11.3508 13.85 11.1508C13.65 10.9508 13.35 11.0008 13.15 11.2008L10.15 14.7008C10 14.8508 10 15.0508 10.1 15.2508C10.2 15.4508 10.3 15.5008 10.5 15.5008H12.4L10.1 18.1508C9.95 18.4008 9.95 18.7008 10.15 18.9008ZM4 15.5008H5.5V17.0008C5.5 17.3008 5.7 17.5008 6 17.5008C6.3 17.5008 6.5 17.3008 6.5 17.0008V15.5008H8C8.3 15.5008 8.5 15.3008 8.5 15.0008C8.5 14.7008 8.3 14.5008 8 14.5008H6.5V13.0008C6.5 12.7008 6.3 12.5008 6 12.5008C5.7 12.5008 5.5 12.7008 5.5 13.0008V14.5008H4C3.7 14.5008 3.5 14.7008 3.5 15.0008C3.5 15.3008 3.7 15.5008 4 15.5008ZM16 15.5008H20C20.3 15.5008 20.5 15.3008 20.5 15.0008C20.5 14.7008 20.3 14.5008 20 14.5008H16C15.7 14.5008 15.5 14.7008 15.5 15.0008C15.5 15.3008 15.7 15.5008 16 15.5008Z" fill="#23B14D"/>
</svg>
