<svg width="24" height="25" viewBox="0 0 24 25" fill="none" xmlns="http://www.w3.org/2000/svg">
<g clip-path="url(#clip0_1171_91300)">
<path d="M23.9925 9.96545C23.9587 9.6512 23.7919 9.37145 23.5215 9.17645L12.2107 1.08508C12.084 0.995078 11.9141 0.995078 11.7881 1.08508L7.43098 4.20208V1.99408C7.43098 1.79308 7.26748 1.63033 7.06686 1.63033H4.21911C4.01848 1.63033 3.85573 1.79308 3.85573 1.99408V6.7592L0.475482 9.1772C0.205857 9.37145 0.0389816 9.65158 0.0052316 9.96545C-0.0277684 10.2718 0.0712316 10.5718 0.291732 10.8178L0.367857 10.8973C0.785982 11.3687 1.55136 11.4493 2.07598 11.0758L3.44323 10.0971V22.0153H1.38336C1.18198 22.0153 1.01923 22.1781 1.01923 22.3791V23.6181C1.01923 23.8191 1.18198 23.9818 1.38336 23.9818H22.6159C22.8165 23.9818 22.9792 23.8191 22.9792 23.6181V22.3791C22.9792 22.1781 22.8165 22.0153 22.6159 22.0153H20.5534V10.096L21.9236 11.0758C22.1501 11.2375 22.416 11.3158 22.6804 11.3158C23.0355 11.3158 23.3865 11.1737 23.6302 10.9015L23.7146 10.8096C23.9276 10.5718 24.0262 10.2722 23.9925 9.96545ZM4.58361 2.35783H6.70386V4.72258L4.58361 6.23945V2.35783ZM22.2517 22.7425V23.254H1.74673V22.7425H22.2517ZM4.17111 22.0153V9.57695L11.9992 3.97633L19.8259 9.57545V22.0153H4.17111ZM23.1754 10.3217L23.091 10.4132C22.9129 10.6127 22.5709 10.6442 22.3462 10.4837L12.2107 3.23383C12.1477 3.18883 12.0739 3.16595 11.9992 3.16595C11.9254 3.16595 11.8511 3.18883 11.7877 3.23383L2.72736 9.71495L1.65298 10.4837C1.42723 10.645 1.08823 10.6131 0.903732 10.405L0.826107 10.3243C0.751482 10.2411 0.717732 10.144 0.728607 10.0438C0.740232 9.9377 0.801732 9.83908 0.900732 9.76783L11.9992 1.82795L23.097 9.76708C23.1975 9.83908 23.259 9.93733 23.2699 10.0435C23.2807 10.144 23.247 10.2411 23.1754 10.3217Z" fill="#23B14D"/>
<path d="M7.77519 17.6159C8.43894 17.6159 8.97931 17.0759 8.97931 16.4118C8.97931 15.7476 8.43894 15.2076 7.77519 15.2076C7.11106 15.2076 6.57031 15.7476 6.57031 16.4118C6.57031 17.0759 7.11106 17.6159 7.77519 17.6159ZM7.77519 15.9348C8.03806 15.9348 8.25181 16.1481 8.25181 16.4114C8.25181 16.6746 8.03806 16.8884 7.77519 16.8884C7.51231 16.8884 7.29781 16.6746 7.29781 16.4114C7.29781 16.1481 7.51231 15.9348 7.77519 15.9348ZM16.2247 17.6159C16.8888 17.6159 17.4296 17.0759 17.4296 16.4118C17.4296 15.7476 16.8892 15.2076 16.2247 15.2076C15.5609 15.2076 15.0206 15.7476 15.0206 16.4118C15.0206 17.0759 15.5609 17.6159 16.2247 17.6159ZM16.2247 15.9348C16.4876 15.9348 16.7021 16.1481 16.7021 16.4114C16.7021 16.6746 16.4876 16.8884 16.2247 16.8884C15.9618 16.8884 15.7481 16.6746 15.7481 16.4114C15.7481 16.1481 15.9614 15.9348 16.2247 15.9348ZM16.2442 12.9783L14.7858 10.2048C14.7236 10.0851 14.5991 10.0098 14.4644 10.0098H9.66294C9.53244 10.0098 9.41169 10.0803 9.34719 10.1931L7.76131 12.9666C7.69756 13.0791 7.69756 13.2175 7.76281 13.3296C7.82806 13.4418 7.94731 13.5108 8.07706 13.5108H15.9221C16.0496 13.5108 16.1673 13.4436 16.2333 13.3349C16.2993 13.2261 16.3038 13.0911 16.2442 12.9783ZM8.70406 12.784L9.87369 10.7373H14.2447L15.3206 12.784H8.70406Z" fill="#23B14D"/>
<path d="M19.0642 14.2221C19.0597 14.2109 19.0574 14.1989 19.0526 14.1884C19.0518 14.1861 19.0518 14.1835 19.0503 14.1812L16.5521 9.02386C16.4913 8.89786 16.3646 8.81836 16.2247 8.81836H14.1671H13.8618H10.1358H7.99419C7.85956 8.81836 7.73581 8.89298 7.67281 9.01261L4.95331 14.1696C4.94881 14.1771 4.94806 14.1846 4.94469 14.1921C4.94244 14.1977 4.94094 14.203 4.93869 14.2086C4.91956 14.2566 4.91019 14.3065 4.91244 14.3571V17.8637C4.91244 18.2826 5.17606 18.6385 5.54544 18.7814C5.60319 18.8204 5.66994 18.8492 5.74531 18.8492H5.89756H6.08881V19.5115C6.08881 20.2157 6.66069 20.7895 7.36381 20.7895C8.06844 20.7895 8.64181 20.2157 8.64181 19.5115V18.8489H15.3581V19.5111C15.3581 20.2154 15.9314 20.7891 16.6361 20.7891C17.3392 20.7891 17.9111 20.2154 17.9111 19.5111V18.8489H17.9493H18.1023C18.6457 18.8489 19.0874 18.4067 19.0874 17.8634V14.3399C19.0874 14.332 19.0837 14.3249 19.0829 14.317C19.0811 14.2847 19.0743 14.2532 19.0642 14.2221ZM8.21394 9.54586H10.1358H13.8618H14.1671H15.9967L18.1428 13.9757H5.87769L8.21394 9.54586ZM7.91431 19.5107C7.91431 19.8145 7.66681 20.0616 7.36344 20.0616C7.06081 20.0616 6.81556 19.8145 6.81556 19.5107V18.8489H7.91431V19.5107ZM17.1839 19.5107C17.1839 19.8145 16.9387 20.0616 16.6361 20.0616C16.3319 20.0616 16.0852 19.8145 16.0852 19.5107V18.8489H17.1839V19.5107ZM18.3603 17.8634C18.3603 18.0059 18.2444 18.1214 18.1023 18.1214H17.9493H17.5473H15.7214H8.27769H6.45256H5.89756C5.75544 18.1214 5.63956 18.0055 5.63956 17.8634V14.7032H18.3603V17.8634Z" fill="#23B14D"/>
</g>
<defs>
<clipPath id="clip0_1171_91300">
<rect width="24" height="24" fill="white" transform="translate(0 0.5)"/>
</clipPath>
</defs>
</svg>
