<svg width="24" height="25" viewBox="0 0 24 25" fill="none" xmlns="http://www.w3.org/2000/svg">
<path d="M18.126 14.769C16.4579 14.769 15.1008 16.126 15.1008 17.7942C15.1008 19.4623 16.4579 20.8194 18.126 20.8194C19.7944 20.8194 21.1512 19.4623 21.1512 17.7942C21.1512 16.126 19.7941 14.769 18.126 14.769ZM18.126 19.3068C17.2918 19.3068 16.6134 18.6284 16.6134 17.7942C16.6134 16.96 17.2918 16.2816 18.126 16.2816C18.9602 16.2816 19.6386 16.96 19.6386 17.7942C19.6386 18.6284 18.9602 19.3068 18.126 19.3068ZM7.78987 14.769C6.12173 14.769 4.76465 16.126 4.76465 17.7942C4.76465 19.4623 6.12173 20.8194 7.78987 20.8194C9.45801 20.8194 10.8151 19.4623 10.8151 17.7942C10.8151 16.126 9.45801 14.769 7.78987 14.769ZM7.78987 19.3068C6.95568 19.3068 6.27726 18.6284 6.27726 17.7942C6.27726 16.96 6.95568 16.2816 7.78987 16.2816C8.62382 16.2816 9.30248 16.96 9.30248 17.7942C9.30248 18.6284 8.62405 19.3068 7.78987 19.3068ZM20.1632 6.10984C20.1002 5.98463 20.0036 5.87938 19.8843 5.80584C19.7649 5.73231 19.6275 5.69336 19.4873 5.69336H15.5041V7.20597H19.0209L21.0803 11.3021L22.4321 10.6224L20.1632 6.10984Z" fill="#23B14D"/>
<path d="M10.1345 17.064H15.8572V18.5766H10.1345V17.064ZM5.52098 17.064H2.89917C2.48142 17.064 2.14289 17.4026 2.14289 17.8203C2.14289 18.238 2.48147 18.5766 2.89917 18.5766H5.52103C5.93878 18.5766 6.27731 18.238 6.27731 17.8203C6.27731 17.4025 5.93873 17.064 5.52098 17.064ZM23.8412 12.4405L22.3536 10.5245C22.2829 10.4334 22.1924 10.3597 22.0889 10.309C21.9853 10.2583 21.8716 10.232 21.7563 10.232H16.2605V4.93792C16.2605 4.52017 15.9219 4.18164 15.5042 4.18164H2.89917C2.48142 4.18164 2.14289 4.52022 2.14289 4.93792C2.14289 5.35562 2.48147 5.6942 2.89917 5.6942H14.7479V10.9883C14.7479 11.4061 15.0865 11.7446 15.5042 11.7446H21.386L22.4874 13.1634V17.0639H20.3949C19.9772 17.0639 19.6387 17.4025 19.6387 17.8202C19.6387 18.238 19.9772 18.5765 20.3949 18.5765H23.2437C23.6614 18.5765 24 18.2379 24 17.8202V12.9043C24 12.7364 23.944 12.5731 23.8412 12.4405ZM5.47059 13.2321H1.99158C1.57383 13.2321 1.2353 13.5707 1.2353 13.9884C1.2353 14.4061 1.57387 14.7446 1.99158 14.7446H5.47055C5.8883 14.7446 6.22683 14.4061 6.22683 13.9884C6.22688 13.5707 5.8883 13.2321 5.47059 13.2321ZM7.21008 10.2573H0.756281C0.338578 10.2573 0 10.5958 0 11.0136C0 11.4313 0.338578 11.7699 0.756281 11.7699H7.21008C7.62783 11.7699 7.96636 11.4313 7.96636 11.0136C7.96636 10.5959 7.62783 10.2573 7.21008 10.2573Z" fill="#23B14D"/>
<path d="M8.44543 7.28125H1.99163C1.57388 7.28125 1.23535 7.61983 1.23535 8.03753C1.23535 8.45528 1.57393 8.79381 1.99163 8.79381H8.44543C8.86318 8.79381 9.20171 8.45523 9.20171 8.03753C9.20176 7.61983 8.86318 7.28125 8.44543 7.28125Z" fill="#23B14D"/>
</svg>
