<svg width="16" height="25" viewBox="0 0 16 25" fill="none" xmlns="http://www.w3.org/2000/svg">
<g clip-path="url(#clip0_1171_91306)">
<path d="M14.3805 0.508193C14.2911 0.492868 14.1994 0.499103 14.1129 0.526381C14.0264 0.553659 13.9477 0.60119 13.8833 0.665022L0.399414 13.9965C0.318768 14.0763 0.263793 14.1784 0.241536 14.2897C0.219279 14.4009 0.230755 14.5163 0.274492 14.6209C0.31823 14.7256 0.392236 14.8149 0.487022 14.8772C0.581808 14.9396 0.693055 14.9722 0.806501 14.9709L6.05636 14.9142L1.27142 23.6576C1.20563 23.778 1.18554 23.9182 1.21483 24.0522C1.24413 24.1863 1.32084 24.3053 1.43087 24.3873C1.54089 24.4693 1.67683 24.5088 1.81368 24.4986C1.95052 24.4884 2.07907 24.4291 2.17569 24.3316L15.6051 10.7632C15.686 10.6817 15.7403 10.5776 15.761 10.4646C15.7816 10.3516 15.7676 10.235 15.7208 10.1301C15.6741 10.0252 15.5966 9.93694 15.4988 9.87683C15.4009 9.81673 15.2871 9.78762 15.1724 9.79332L10.0193 10.048L14.7831 1.3435C14.8268 1.26398 14.8508 1.17518 14.8532 1.0845C14.8556 0.993823 14.8363 0.903883 14.7969 0.82217C14.7575 0.740456 14.6992 0.669333 14.6267 0.61472C14.5543 0.560107 14.4699 0.523585 14.3805 0.508193ZM11.9146 4.21312L8.53224 10.3928C8.48373 10.4816 8.45974 10.5817 8.46274 10.6828C8.46574 10.7839 8.49562 10.8824 8.54931 10.9682C8.603 11.0539 8.67856 11.1238 8.76822 11.1707C8.85788 11.2175 8.95841 11.2397 9.05945 11.2348L13.7654 11.0035L4.21446 20.6534L7.52231 14.6083C7.57004 14.5212 7.59414 14.423 7.59222 14.3237C7.59031 14.2244 7.56244 14.1273 7.51139 14.0421C7.46034 13.9568 7.38789 13.8864 7.30122 13.8379C7.21456 13.7893 7.11669 13.7642 7.01735 13.7652L2.20127 13.8164L11.9146 4.21312Z" fill="#23B14D"/>
</g>
<defs>
<clipPath id="clip0_1171_91306">
<rect width="15.5399" height="24" fill="white" transform="translate(0.230469 0.5)"/>
</clipPath>
</defs>
</svg>
