<svg width="33" height="32" viewBox="0 0 33 32" fill="none" xmlns="http://www.w3.org/2000/svg">
<path d="M21.0527 11.1531L21.8815 9.66894L27.1267 12.5979V24.2228L16.4997 30.158L5.87266 24.2218V12.5979L11.1188 9.67187L11.9476 11.156L8.70053 12.9689L8.46594 13.0999L8.70054 13.2308L16.4265 17.5438L16.4997 17.5846L16.5728 17.5438L24.2988 13.2308L24.5332 13.1L24.2989 12.9689L21.0527 11.1531ZM7.79578 14.6689L7.57266 14.5443V14.7998V23.1368V23.2249L7.64951 23.2678L15.4265 27.6118L15.6497 27.7364V27.4808V19.1438V19.0558L15.5728 19.0129L13.2598 17.7209L13.0367 17.5962V17.8518V20.7745L9.92866 19.0417V15.9478V15.8598L9.85178 15.8169L7.79578 14.6689ZM17.3497 27.4808V27.7365L17.5728 27.6118L25.3498 23.2668L25.4267 23.2239V23.1358V14.7998V14.5442L25.2035 14.6689L17.4265 19.0129L17.3497 19.0558V19.1438V27.4808Z" fill="#23B14D" stroke="white" stroke-width="0.3"/>
<path d="M15.6502 9.54494V9.39736L15.5026 9.39496C14.6631 9.38134 13.8364 9.18645 13.0792 8.82362C12.322 8.46079 11.6521 7.93861 11.1155 7.29282C10.5789 6.64704 10.1881 5.89291 9.97006 5.08207C9.752 4.27124 9.71174 3.42285 9.85205 2.59501L9.85207 2.59488L9.95233 2.00012L10.5469 1.89989C10.5469 1.89989 10.547 1.89988 10.547 1.89987C11.4645 1.7466 12.4054 1.81436 13.2916 2.09752C14.1775 2.38064 14.9832 2.87093 15.6418 3.52772C15.9166 3.806 16.162 4.11181 16.3742 4.44032L16.4995 4.63444L16.6258 4.44091C16.8397 4.11301 17.0865 3.80776 17.3623 3.5299C18.021 2.87302 18.8267 2.38267 19.7128 2.09952C20.5989 1.81636 21.5398 1.7486 22.4573 1.90187C22.4574 1.90188 22.4574 1.90189 22.4574 1.90189L23.052 2.00212L23.1522 2.59688L23.1523 2.59696C23.2923 3.42498 23.2517 4.27348 23.0333 5.08435C22.8148 5.89522 22.4237 6.64929 21.8867 7.29492C21.3497 7.94054 20.6795 8.46247 19.9219 8.82494C19.1644 9.1874 18.3375 9.38185 17.4978 9.39496L17.3502 9.39727V9.54494V14.4399H15.6502V9.54494ZM18.5611 4.72984L18.561 4.72999C17.8134 5.47918 17.3802 6.48571 17.3502 7.54369L17.3457 7.70182L17.5039 7.6979C18.5629 7.67163 19.5713 7.23943 20.3207 6.49065C21.07 5.74187 21.503 4.73378 21.5301 3.67478L21.5341 3.51686L21.3762 3.521C20.3177 3.54874 19.3102 3.98139 18.5611 4.72984ZM14.4393 4.72991L14.4392 4.72986C13.6908 3.98171 12.684 3.54905 11.6261 3.521L11.4682 3.51681L11.4722 3.67478C11.4993 4.73342 11.932 5.74122 12.6809 6.48995C13.4298 7.23867 14.4377 7.6711 15.4964 7.6979L15.6545 7.7019L15.6501 7.54381C15.6209 6.48557 15.1876 5.47867 14.4393 4.72991Z" fill="#23B14D" stroke="white" stroke-width="0.3"/>
</svg>
