<svg width="24" height="25" viewBox="0 0 24 25" fill="none" xmlns="http://www.w3.org/2000/svg">
<g clip-path="url(#clip0_1171_91296)">
<path d="M24.0003 11.7502C24.0003 11.6508 23.9608 11.5554 23.8904 11.485C23.8201 11.4147 23.7247 11.3752 23.6253 11.3752H17.1993L16.9625 10.2502H23.6253C23.7247 10.2502 23.8201 10.2107 23.8904 10.1404C23.9608 10.07 24.0003 9.97466 24.0003 9.87521C24.0003 9.77575 23.9608 9.68037 23.8904 9.61004C23.8201 9.53972 23.7247 9.50021 23.6253 9.50021H15.9378V10.2502H16.196L19.1333 24.2025C19.1431 24.2511 19.1623 24.2973 19.19 24.3384C19.2177 24.3795 19.2533 24.4147 19.2946 24.442C19.336 24.4693 19.3824 24.4881 19.4311 24.4973C19.4798 24.5066 19.5298 24.5061 19.5783 24.4959C19.6268 24.4857 19.6728 24.4659 19.7136 24.4378C19.7545 24.4097 19.7893 24.3738 19.8162 24.3322C19.8431 24.2905 19.8614 24.244 19.8702 24.1952C19.8789 24.1464 19.8779 24.0964 19.8672 24.048L19.7253 23.3752H23.6253C23.7247 23.3752 23.8201 23.3357 23.8904 23.2654C23.9608 23.195 24.0003 23.0997 24.0003 23.0002C24.0003 22.9008 23.9608 22.8054 23.8904 22.735C23.8201 22.6647 23.7247 22.6252 23.6253 22.6252H19.5678L19.331 21.5002H23.6253C23.7247 21.5002 23.8201 21.4607 23.8904 21.3904C23.9608 21.32 24.0003 21.2247 24.0003 21.1252C24.0003 21.0258 23.9608 20.9304 23.8904 20.86C23.8201 20.7897 23.7247 20.7502 23.6253 20.7502H19.1729L18.9361 19.6252H23.6253C23.7247 19.6252 23.8201 19.5857 23.8904 19.5154C23.9608 19.445 24.0003 19.3497 24.0003 19.2502C24.0003 19.1508 23.9608 19.0554 23.8904 18.985C23.8201 18.9147 23.7247 18.8752 23.6253 18.8752H18.7782L18.5414 17.7502H23.6253C23.7247 17.7502 23.8201 17.7107 23.8904 17.6404C23.9608 17.57 24.0003 17.4747 24.0003 17.3752C24.0003 17.2758 23.9608 17.1804 23.8904 17.11C23.8201 17.0397 23.7247 17.0002 23.6253 17.0002H18.3835L18.1467 15.8752H23.6253C23.7247 15.8752 23.8201 15.8357 23.8904 15.7654C23.9608 15.695 24.0003 15.5997 24.0003 15.5002C24.0003 15.4008 23.9608 15.3054 23.8904 15.235C23.8201 15.1647 23.7247 15.1252 23.6253 15.1252H17.9888L17.752 14.0002H23.6253C23.7247 14.0002 23.8201 13.9607 23.8904 13.8904C23.9608 13.82 24.0003 13.7247 24.0003 13.6252C24.0003 13.5258 23.9608 13.4304 23.8904 13.36C23.8201 13.2897 23.7247 13.2502 23.6253 13.2502H17.594L17.3572 12.1252H23.6253C23.7247 12.1252 23.8201 12.0857 23.8904 12.0154C23.9608 11.945 24.0003 11.8497 24.0003 11.7502ZM3.93778 7.02858C4.20341 7.15935 4.4926 7.23542 4.78818 7.25225C5.08377 7.26909 5.37973 7.22636 5.65848 7.1266C5.93724 7.02684 6.1931 6.87209 6.41089 6.67152C6.62867 6.47096 6.80394 6.22868 6.92627 5.95907C7.0486 5.68945 7.11551 5.39801 7.12303 5.10204C7.13054 4.80607 7.07851 4.5116 6.97001 4.23613C6.86151 3.96066 6.69877 3.7098 6.49144 3.49844C6.28411 3.28709 6.03643 3.11955 5.7631 3.00577C5.80547 2.69194 5.78023 2.37267 5.68905 2.0694C5.59788 1.76613 5.44289 1.48587 5.23448 1.24743C5.02607 1.00899 4.76907 0.817893 4.48073 0.686957C4.19239 0.556022 3.87937 0.488281 3.56269 0.488281C3.24601 0.488281 2.93299 0.556022 2.64465 0.686957C2.3563 0.817893 2.0993 1.00899 1.8909 1.24743C1.68249 1.48587 1.5275 1.76613 1.43633 2.0694C1.34515 2.37267 1.31991 2.69194 1.36228 3.00577C0.889511 3.20149 0.499473 3.55546 0.258944 4.00709C0.0184143 4.45871 -0.0576477 4.9799 0.0437794 5.48143C0.145207 5.98296 0.417815 6.43364 0.814934 6.75631C1.21205 7.07898 1.70899 7.25358 2.22066 7.25021C2.55566 7.25059 2.88637 7.1748 3.18778 7.02858V9.50021H0.375283C0.275827 9.50021 0.180444 9.53972 0.110118 9.61004C0.0397922 9.68037 0.000283339 9.77575 0.000283339 9.87521C0.000283339 9.97466 0.0397922 10.07 0.110118 10.1404C0.180444 10.2107 0.275827 10.2502 0.375283 10.2502H7.0381L6.80128 11.3752H0.375283C0.275827 11.3752 0.180444 11.4147 0.110118 11.485C0.0397922 11.5554 0.000283339 11.6508 0.000283339 11.7502C0.000283339 11.8497 0.0397922 11.945 0.110118 12.0154C0.180444 12.0857 0.275827 12.1252 0.375283 12.1252H6.64341L6.4066 13.2502H0.375283C0.275827 13.2502 0.180444 13.2897 0.110118 13.36C0.0397922 13.4304 0.000283339 13.5258 0.000283339 13.6252C0.000283339 13.7247 0.0397922 13.82 0.110118 13.8904C0.180444 13.9607 0.275827 14.0002 0.375283 14.0002H6.24872L6.01191 15.1252H0.375283C0.275827 15.1252 0.180444 15.1647 0.110118 15.235C0.0397922 15.3054 0.000283339 15.4008 0.000283339 15.5002C0.000283339 15.5997 0.0397922 15.695 0.110118 15.7654C0.180444 15.8357 0.275827 15.8752 0.375283 15.8752H5.85385L5.61703 17.0002H0.375283C0.275827 17.0002 0.180444 17.0397 0.110118 17.11C0.0397922 17.1804 0.000283339 17.2758 0.000283339 17.3752C0.000283339 17.4747 0.0397922 17.57 0.110118 17.6404C0.180444 17.7107 0.275827 17.7502 0.375283 17.7502H5.45916L5.22235 18.8752H0.375283C0.275827 18.8752 0.180444 18.9147 0.110118 18.985C0.0397922 19.0554 0.000283339 19.1508 0.000283339 19.2502C0.000283339 19.3497 0.0397922 19.445 0.110118 19.5154C0.180444 19.5857 0.275827 19.6252 0.375283 19.6252H5.06447L4.82766 20.7502H0.375283C0.275827 20.7502 0.180444 20.7897 0.110118 20.86C0.0397922 20.9304 0.000283339 21.0258 0.000283339 21.1252C0.000283339 21.2247 0.0397922 21.32 0.110118 21.3904C0.180444 21.4607 0.275827 21.5002 0.375283 21.5002H4.66903L4.43222 22.6252H0.375283C0.275827 22.6252 0.180444 22.6647 0.110118 22.735C0.0397922 22.8054 0.000283339 22.9008 0.000283339 23.0002C0.000283339 23.0997 0.0397922 23.195 0.110118 23.2654C0.180444 23.3357 0.275827 23.3752 0.375283 23.3752H4.27528L4.13372 24.048C4.12302 24.0964 4.12202 24.1464 4.13078 24.1952C4.13954 24.244 4.15788 24.2905 4.18475 24.3322C4.21161 24.3738 4.24647 24.4097 4.2873 24.4378C4.32813 24.4659 4.37412 24.4857 4.42262 24.4959C4.47113 24.5061 4.52117 24.5066 4.56986 24.4973C4.61856 24.4881 4.66493 24.4693 4.70631 24.442C4.74769 24.4147 4.78325 24.3795 4.81093 24.3384C4.83862 24.2973 4.85787 24.2511 4.8676 24.2025L7.8046 10.2502H9.33366L7.87735 24.086C7.87215 24.135 7.87666 24.1846 7.89062 24.2318C7.90459 24.2791 7.92773 24.3231 7.95873 24.3614C7.98972 24.3998 8.02796 24.4316 8.07127 24.4551C8.11457 24.4786 8.16209 24.4934 8.2111 24.4985C8.22441 24.4998 8.23772 24.5006 8.25085 24.5006C8.34345 24.5005 8.43275 24.4661 8.50153 24.4041C8.57032 24.3421 8.61373 24.2569 8.62341 24.1648L10.0878 10.2502H11.6253V24.1252C11.6253 24.2247 11.6648 24.32 11.7351 24.3904C11.8054 24.4607 11.9008 24.5002 12.0003 24.5002C12.0997 24.5002 12.1951 24.4607 12.2654 24.3904C12.3358 24.32 12.3753 24.2247 12.3753 24.1252V10.2502H13.6878V9.50021H3.93778V7.02858ZM3.56278 5.92233C3.51187 5.92234 3.46149 5.93272 3.41471 5.95284C3.36794 5.97295 3.32575 6.00238 3.29072 6.03933C3.08921 6.25263 2.82852 6.40079 2.54215 6.46478C2.25577 6.52876 1.95681 6.50565 1.68368 6.3984C1.41055 6.29116 1.17573 6.10469 1.0094 5.86295C0.843069 5.62121 0.752832 5.33525 0.750283 5.04183C0.750167 4.71145 0.862641 4.39088 1.06916 4.13299C1.27568 3.87511 1.56392 3.6953 1.88635 3.62321C1.93686 3.61158 1.98442 3.5896 2.02601 3.55867C2.06761 3.52773 2.10234 3.48851 2.12801 3.44348C2.15368 3.39844 2.16973 3.34857 2.17516 3.29702C2.18059 3.24547 2.17527 3.19335 2.15953 3.14396C2.115 3.0028 2.09236 2.85566 2.09241 2.70765C2.09678 2.32053 2.25363 1.95075 2.52892 1.67855C2.80421 1.40635 3.17574 1.25369 3.56288 1.25369C3.95002 1.25369 4.32154 1.40635 4.59683 1.67855C4.87213 1.95075 5.02897 2.32053 5.03335 2.70765C5.03339 2.85566 5.01075 3.0028 4.96622 3.14396C4.95064 3.19329 4.94544 3.24532 4.95094 3.29676C4.95644 3.3482 4.97252 3.39795 4.99818 3.44288C5.02384 3.4878 5.05852 3.52693 5.10003 3.5578C5.14155 3.58868 5.189 3.61063 5.23941 3.62227C5.4605 3.6753 5.66613 3.77928 5.83989 3.9259C6.01366 4.07253 6.15074 4.25774 6.24021 4.46675C6.32968 4.67577 6.36905 4.90281 6.35519 5.12974C6.34132 5.35668 6.2746 5.57723 6.16035 5.7738C6.04611 5.97037 5.88749 6.13752 5.69717 6.26189C5.50685 6.38627 5.29009 6.46444 5.06419 6.49017C4.83829 6.51589 4.60951 6.48845 4.39609 6.41005C4.18268 6.33164 3.99055 6.20444 3.83503 6.03858C3.7999 6.00178 3.75765 5.97251 3.71084 5.95256C3.66404 5.93261 3.61366 5.9222 3.56278 5.92233ZM15.1927 15.2456C14.949 15.3346 14.6819 15.3354 14.4378 15.2476L15.3764 24.1644C15.3861 24.2567 15.4297 24.3422 15.4988 24.4042C15.5678 24.4662 15.6575 24.5004 15.7503 24.5002C15.7632 24.5002 15.7767 24.5002 15.7898 24.4981C15.8389 24.493 15.8864 24.4782 15.9297 24.4547C15.973 24.4312 16.0112 24.3994 16.0422 24.3611C16.0732 24.3228 16.0964 24.2787 16.1103 24.2315C16.1243 24.1842 16.1288 24.1347 16.1236 24.0856L15.1927 15.2456Z" fill="#23B14D"/>
</g>
<defs>
<clipPath id="clip0_1171_91296">
<rect width="24" height="24" fill="white" transform="translate(0 0.5)"/>
</clipPath>
</defs>
</svg>
