<svg width="21" height="20" viewBox="0 0 21 20" fill="none" xmlns="http://www.w3.org/2000/svg">
<g clip-path="url(#clip0_1299_140072)">
<path fill-rule="evenodd" clip-rule="evenodd" d="M10.4476 9.70602C10.6103 9.5433 10.8741 9.5433 11.0368 9.70602L14.3701 13.0394C14.5329 13.2021 14.5329 13.4659 14.3701 13.6286C14.2074 13.7913 13.9436 13.7913 13.7809 13.6286L10.7422 10.5899L7.70348 13.6286C7.54076 13.7913 7.27694 13.7913 7.11423 13.6286C6.95151 13.4659 6.95151 13.2021 7.11423 13.0394L10.4476 9.70602Z" fill="black" fill-opacity="0.4"/>
<path fill-rule="evenodd" clip-rule="evenodd" d="M10.7428 9.58398C10.973 9.58398 11.1595 9.77053 11.1595 10.0007V17.5007C11.1595 17.7308 10.973 17.9173 10.7428 17.9173C10.5127 17.9173 10.3262 17.7308 10.3262 17.5007V10.0007C10.3262 9.77053 10.5127 9.58398 10.7428 9.58398Z" fill="url(#paint0_linear_1299_140072)"/>
<path fill-rule="evenodd" clip-rule="evenodd" d="M7.97683 2.09074C9.0468 2.05132 10.1118 2.25497 11.0917 2.68638C12.0716 3.1178 12.941 3.76574 13.6345 4.58152C14.2578 5.31473 14.7244 6.16636 15.007 7.08389H15.7421C16.7604 7.08456 17.7497 7.42432 18.5535 8.04955C19.3572 8.67478 19.9299 9.54986 20.181 10.5367C20.4322 11.5235 20.3476 12.5659 19.9406 13.4993C19.5335 14.4327 18.8272 15.204 17.9332 15.6914C17.7311 15.8015 17.4781 15.727 17.3679 15.525C17.2578 15.323 17.3323 15.0699 17.5343 14.9597C18.2658 14.5609 18.8437 13.9299 19.1767 13.1662C19.5097 12.4025 19.579 11.5496 19.3735 10.7422C19.1679 9.93483 18.6994 9.21886 18.0418 8.70731C17.3842 8.19576 16.5749 7.91777 15.7418 7.91722H14.6921C14.5021 7.91722 14.3362 7.78875 14.2887 7.60485C14.0522 6.6902 13.6115 5.84105 12.9996 5.12125C12.3877 4.40145 11.6206 3.82973 10.7559 3.44908C9.89129 3.06842 8.9516 2.88873 8.00751 2.92351C7.06342 2.95829 6.1395 3.20665 5.30521 3.6499C4.47093 4.09316 3.74798 4.71978 3.19072 5.48265C2.63346 6.24552 2.2564 7.1248 2.08787 8.05438C1.91935 8.98396 1.96375 9.93964 2.21774 10.8496C2.47173 11.7595 2.9287 12.6001 3.5543 13.308C3.70668 13.4804 3.69042 13.7437 3.51799 13.8961C3.34555 14.0485 3.08223 14.0322 2.92985 13.8598C2.22085 13.0575 1.70295 12.1049 1.41509 11.0736C1.12724 10.0424 1.07691 8.95925 1.26791 7.90573C1.4589 6.85221 1.88624 5.85569 2.5178 4.9911C3.14936 4.12651 3.9687 3.41634 4.91423 2.91399C5.85975 2.41163 6.90686 2.13016 7.97683 2.09074Z" fill="url(#paint1_linear_1299_140072)"/>
<path fill-rule="evenodd" clip-rule="evenodd" d="M10.4476 9.70602C10.6103 9.5433 10.8741 9.5433 11.0368 9.70602L14.3701 13.0394C14.5329 13.2021 14.5329 13.4659 14.3701 13.6286C14.2074 13.7913 13.9436 13.7913 13.7809 13.6286L10.7422 10.5899L7.70348 13.6286C7.54076 13.7913 7.27694 13.7913 7.11423 13.6286C6.95151 13.4659 6.95151 13.2021 7.11423 13.0394L10.4476 9.70602Z" fill="url(#paint2_linear_1299_140072)"/>
</g>
<defs>
<linearGradient id="paint0_linear_1299_140072" x1="10.5379" y1="17.9173" x2="12.1364" y2="17.6412" gradientUnits="userSpaceOnUse">
<stop stop-color="#36DD68"/>
<stop offset="1" stop-color="#DDDF78"/>
</linearGradient>
<linearGradient id="paint1_linear_1299_140072" x1="6.02495" y1="15.7423" x2="11.5303" y2="2.39487" gradientUnits="userSpaceOnUse">
<stop stop-color="#36DD68"/>
<stop offset="1" stop-color="#DDDF78"/>
</linearGradient>
<linearGradient id="paint2_linear_1299_140072" x1="8.89793" y1="13.7507" x2="10.2869" y2="9.43216" gradientUnits="userSpaceOnUse">
<stop stop-color="#36DD68"/>
<stop offset="1" stop-color="#DDDF78"/>
</linearGradient>
<clipPath id="clip0_1299_140072">
<rect width="20" height="20" fill="white" transform="translate(0.742188)"/>
</clipPath>
</defs>
</svg>
