<svg width="24" height="24" viewBox="0 0 24 24" fill="none" xmlns="http://www.w3.org/2000/svg">
<path d="M18.9001 13.8474C18.4489 11.4828 16.3471 9.70078 13.8937 9.70078C12.1237 9.70078 10.4866 10.6296 9.5644 12.1122C9.10364 11.9062 8.60451 11.8001 8.0998 11.8008C6.1147 11.8008 4.4998 13.4157 4.4998 15.4008C4.4998 15.504 4.5046 15.6078 4.5136 15.711C2.9557 16.002 1.7998 17.3784 1.7998 18.9777C1.7998 20.8098 3.2905 22.3008 5.1229 22.3008H18.5644C20.8999 22.3008 22.7998 20.4009 22.7998 18.0657C22.7998 16.8927 22.3318 15.8031 21.481 14.997C20.7767 14.3311 19.8662 13.9256 18.9001 13.8474ZM18.5641 21.1008H5.1232C4.56027 21.1002 4.02054 20.8764 3.62245 20.4783C3.22437 20.0803 3.00044 19.5406 2.9998 18.9777C2.9998 17.9211 3.78941 17.0172 4.83581 16.8741L5.9809 16.7181L5.7928 16.0536C5.73191 15.8413 5.70062 15.6216 5.6998 15.4008C5.6998 14.0775 6.7765 13.0008 8.0998 13.0008C8.5885 13.0008 9.05981 13.1478 9.46211 13.4265L10.0513 13.8336L10.3489 13.1826C10.9828 11.7963 12.3742 10.9008 13.8937 10.9008C15.9109 10.9008 17.6167 12.4761 17.7772 14.487L17.8237 15.0696L18.4075 15.0384C18.8191 15.0153 19.2311 15.077 19.6179 15.2198C20.0047 15.3625 20.3581 15.5832 20.656 15.8682C20.9556 16.1501 21.1941 16.4907 21.3564 16.8688C21.5188 17.2468 21.6016 17.6542 21.5998 18.0657C21.5998 19.7394 20.2375 21.1008 18.5641 21.1008ZM8.0998 10.9008C9.91931 10.9008 11.3998 9.42028 11.3998 7.60078C11.3998 5.78128 9.91931 4.30078 8.0998 4.30078C6.2803 4.30078 4.7998 5.78128 4.7998 7.60078C4.7998 9.42028 6.2803 10.9008 8.0998 10.9008ZM8.0998 5.50078C9.2578 5.50078 10.1998 6.44278 10.1998 7.60078C10.1998 8.75878 9.2578 9.70078 8.0998 9.70078C6.9418 9.70078 5.9998 8.75878 5.9998 7.60078C5.9998 6.44278 6.9418 5.50078 8.0998 5.50078ZM7.4998 1.30078H8.6998V3.10078H7.4998V1.30078ZM3.2206 3.57028L4.0693 2.72158L5.3422 3.99478L4.4938 4.84318L3.2206 3.57028ZM1.7998 7.00078H3.5998V8.20078H1.7998V7.00078ZM3.2206 11.6313L4.4938 10.3584L5.3422 11.2068L4.0693 12.48L3.2206 11.6313ZM12.5998 7.00078H14.3998V8.20078H12.5998V7.00078ZM10.8574 3.99478L12.1306 2.72158L12.979 3.56998L11.7061 4.84318L10.8574 3.99478Z" fill="#23B14D"/>
</svg>
